Coordinates
version=1
nRows=13
nColumns=36
inDegrees=yes

Units are S.I. units (second, meters, Newtons, ...)
If the header above contains a line with 'inDegrees', this indicates whether rotational values are in degrees (yes) or radians (no).

endheader
time	pelvis_tilt	pelvis_list	pelvis_rotation	pelvis_tx	pelvis_ty	pelvis_tz	hip_flexion_r	hip_adduction_r	hip_rotation_r	knee_angle_r	knee_angle_r_beta	ankle_angle_r	subtalar_angle_r	mtp_angle_r	hip_flexion_l	hip_adduction_l	hip_rotation_l	knee_angle_l	knee_angle_l_beta	ankle_angle_l	subtalar_angle_l	mtp_angle_l	lumbar_extension	lumbar_bending	lumbar_rotation	arm_flex_r	arm_add_r	arm_rot_r	elbow_flex_r	pro_sup_r	arm_flex_l	arm_add_l	arm_rot_l	elbow_flex_l	pro_sup_l
      5.01666670	    -21.91403863	     -0.97917732	     -5.62016264	      0.55002289	      0.69899912	     -0.04133286	     74.52910611	    -16.23279836	     -6.93407277	     83.82310322	      1.46298914	     36.62999272	     -9.33184583	     -7.49999987	     79.09410467	    -21.56717980	     -1.45351492	     86.48623549	      1.50946957	     33.72430215	     -8.64048711	     -7.49999987	    -10.37595746	      1.87849487	      2.97226297	     61.33121485	     -8.04764391	     62.98928191	    122.92182420	     99.77722631	     68.95596742	     -2.92870962	     61.56431228	    121.12046603	    102.62908606
      5.03333330	    -21.47467377	     -1.19413465	     -5.64520325	      0.55578864	      0.70892514	     -0.03547889	     72.88124928	    -15.74127959	     -7.37813341	     82.26244982	      1.43575060	     36.26917273	     -9.33026375	     -7.49999987	     77.59682506	    -21.80859108	     -1.72614405	     85.08090331	      1.48494189	     33.28113445	     -8.52257912	     -7.49999987	    -10.22374373	      1.80049879	      2.99351102	     60.07558089	     -7.88476636	     62.59679116	    121.74032381	     99.84479274	     68.14431789	     -3.85835791	     62.66261701	    120.87731062	    102.90112694
      5.05000000	    -21.08467355	     -1.20213594	     -5.62661822	      0.55068219	      0.72238436	     -0.03409011	     71.25493480	    -15.38705832	     -7.68328174	     80.47932914	      1.40462927	     35.70205048	     -9.30546395	     -7.49999987	     75.93006269	    -21.99922295	     -2.33422645	     83.39797605	      1.45556927	     32.53134422	     -8.27808217	     -7.49999987	    -10.65713947	      1.53261146	      3.04122952	     59.68426217	     -7.41571115	     63.53555762	    120.86170950	     97.04063892	     68.10604674	     -4.62063485	     63.47188771	    120.31245023	    100.04651994
      5.06666670	    -20.89585865	     -1.30994647	     -5.57566339	      0.55813238	      0.72718936	     -0.03672448	     69.71184468	    -15.13600061	     -8.13346582	     78.70779411	      1.37371015	     35.15945324	     -9.10234282	     -7.49999987	     74.41387361	    -22.02474453	     -2.74769538	     81.70772257	      1.42606878	     31.83338527	     -8.10143834	     -7.49999987	     -9.92512302	      1.44023707	      2.72686870	     58.99465323	     -7.63879479	     63.87358985	    121.08043644	     97.19334046	     67.19118531	     -4.51248659	     64.10668750	    120.70084509	    100.23518868
      5.08333330	    -19.82256007	     -1.41094955	     -5.49088028	      0.55912509	      0.73664520	     -0.03676258	     67.31322433	    -14.95769711	     -8.47913057	     76.98840930	      1.34370123	     34.66824743	     -9.07875130	     -7.49999987	     71.93760714	    -21.99531874	     -3.30094462	     80.02557303	      1.39670974	     31.24422570	     -8.15120483	     -7.49999987	    -10.66863595	      1.23444870	      2.62680542	     59.23506063	     -7.74155504	     62.89608222	    121.42393784	    101.17513834	     67.71806021	     -3.57982044	     63.56120600	    121.21586734	    104.10339287
      5.10000000	    -19.13147018	     -1.53626005	     -5.37900502	      0.57137198	      0.74741264	     -0.03338376	     65.02412172	    -14.70760081	     -8.95958231	     75.01255510	      1.30921607	     34.16426080	     -8.90229409	     -7.49999987	     69.49066863	    -21.82796814	     -3.74738615	     78.04354084	      1.36211675	     30.94694983	     -8.08761948	     -7.49999987	     -9.91583752	      1.06132165	      2.37249853	     58.04899026	     -7.09209513	     63.15310677	    121.77659848	    101.19699833	     65.98897070	     -3.15610635	     64.19667408	    121.32667415	    104.14757545
      5.11666670	    -17.15675694	     -1.63346568	     -5.23146225	      0.57172257	      0.75407891	     -0.03359921	     61.56839703	    -14.49601971	     -9.17988595	     73.25933411	      1.27861659	     33.95839806	     -8.52381512	     -7.49999987	     65.78251355	    -21.75798592	     -4.44611517	     76.19860366	      1.32991652	     30.75138919	     -7.73675430	     -7.49999987	    -10.81978065	      0.68119233	      1.79145295	     57.28092946	     -7.54143151	     62.02104132	    121.12424038	    101.08765511	     65.89990439	     -3.40032623	     63.75715848	    120.87946689	    104.11462494
      5.13333330	    -16.35858970	     -1.49066628	     -5.07774205	      0.56517493	      0.77000124	     -0.03190113	     59.46913264	    -14.40975952	     -9.33398531	     71.48850043	      1.24770971	     33.51148137	     -8.24964623	     -7.49999987	     63.46952687	    -21.65019990	     -5.26216291	     74.38954291	      1.29834245	     30.37218240	     -7.03863061	     -7.49999987	    -11.23020118	      0.30145465	      1.45357454	     58.71785771	     -7.44957117	     62.25736526	    120.10977793	     97.52273343	     67.18746113	     -3.79786933	     65.03895807	    121.24862946	    100.63165275
      5.15000000	    -15.70546808	     -1.38206538	     -4.92833486	      0.56650283	      0.78174927	     -0.03225044	     57.43784157	    -14.34583592	     -9.65568688	     69.50475670	      1.21308685	     32.70862223	     -8.03111458	     -7.49999987	     61.33128301	    -21.41443472	     -5.96358936	     72.39553883	      1.26354052	     29.42108427	     -7.03714595	     -7.49999987	    -11.48736255	      0.06700895	      1.34229416	     58.98399780	     -7.23452067	     62.08443587	    119.47295918	     97.75875740	     67.44365503	     -3.88342889	     65.01894978	    121.46261033	    100.86329041
      5.16666670	    -15.34230359	     -1.23966005	     -4.88444842	      0.57304115	      0.79626278	     -0.03358210	     55.35171508	    -14.30455122	    -10.22518889	     66.95614125	      1.16860512	     31.67996171	     -7.84174500	     -7.49999987	     58.99166307	    -21.05833924	     -6.74599546	     69.79367511	      1.21812943	     28.54656561	     -6.95869189	     -7.49999987	    -11.13562926	     -0.15418225	      0.99447158	     58.39868583	     -6.71305807	     62.80885376	    119.66008705	     95.12090176	     66.72033151	     -4.30025142	     64.61765140	    120.93858395	     97.82908611
      5.18333330	    -13.30134536	     -1.14125886	     -4.71280540	      0.57934148	      0.80422719	     -0.02798503	     51.50409211	    -14.31812666	    -10.70568158	     64.53774620	      1.12639616	     30.87310823	     -7.55825395	     -7.49999987	     54.68544657	    -20.60157778	     -7.71481179	     67.05625663	      1.17035246	     27.80757996	     -6.90604311	     -7.49999987	    -12.20356076	     -0.69423165	      0.46306712	     58.14727793	     -6.18400642	     62.64529533	    118.83099446	     95.70569839	     66.33540338	     -4.56372439	     63.88158969	    121.02161528	     98.36836630
      5.20000000	    -12.40685835	     -0.88898659	     -4.62153857	      0.57401106	      0.81263705	     -0.03421049	     49.23955115	    -14.54913302	    -11.14872012	     62.49550189	      1.09075228	     30.06519398	     -7.28262850	     -7.49999987	     52.06180704	    -20.13911863	     -8.61936494	     64.80218244	      1.13101145	     27.32553105	     -6.48658228	     -7.49999987	    -12.72995324	     -1.01835351	      0.29378609	     59.50973480	     -5.53614107	     62.67876905	    118.50751530	     96.31858672	     67.12206550	     -4.10135276	     63.71978209	    121.34608029	     98.87120754
      5.21666670	    -11.35500929	     -0.72918247	     -4.45469753	      0.58042766	      0.81869572	     -0.02850891	     46.66896766	    -14.68974310	    -11.72962466	     60.43411906	      1.05477436	     29.47291864	     -6.79209921	     -7.49999987	     49.30544552	    -19.54266569	     -9.23670430	     62.43953320	      1.08977544	     26.80370806	     -6.35316876	     -7.49999987	    -12.80572588	     -1.42308325	     -0.18570689	     59.27816226	     -5.64120219	     62.83167893	    118.07850575	     96.71165433	     66.97278573	     -4.46023690	     63.15221829	    120.95300594	     99.16410634
